<svg width="14" height="32" viewBox="0 0 14 32" fill="none" xmlns="http://www.w3.org/2000/svg">
<path d="M6.90266 0.529419L7.73288 2.08875C7.91953 2.3765 8.12174 2.63121 8.35992 2.86841C9.0582 3.55798 9.70908 4.29396 10.3081 5.0713C11.7148 6.91839 12.6636 8.96962 13.3412 11.1881C13.7476 12.5432 13.9683 13.9334 13.9848 15.3391C14.0528 19.5418 12.6121 23.1504 9.70732 26.1495C9.23483 26.625 8.72438 27.0614 8.18104 27.4541C7.89329 27.4541 7.75718 27.2334 7.63858 27.0302C7.4226 26.6535 7.27885 26.2397 7.21472 25.8102C7.11265 25.3017 7.04557 24.7933 7.07862 24.2683V24.0311C7.05529 23.9806 6.80156 0.648993 6.90266 0.529419Z" fill="#599636"/>
<path d="M6.90265 0.477903C6.86863 0.409852 6.8346 0.461376 6.80058 0.494429C6.8171 0.834682 6.6985 1.13799 6.51282 1.42769C6.30867 1.71545 6.03841 1.93613 5.76718 2.17333C4.26035 3.47796 3.07432 5.05381 2.12453 6.81632C0.86073 9.18837 0.209389 11.7305 0.0246799 14.4069C-0.0598973 15.3722 0.329935 18.7786 0.634219 19.7615C1.46444 22.3707 2.95572 24.5571 4.88738 26.4547C5.36179 26.9116 5.86926 27.3355 6.39422 27.7428C6.54685 27.7428 6.56337 27.6067 6.59837 27.5056C6.66529 27.2893 6.7163 27.0683 6.751 26.8446L7.09125 24.3034L6.90265 0.477903Z" fill="#6CAC48"/>
<path d="M7.73288 28.4865C7.76691 28.0977 7.95356 27.7749 8.15674 27.4531C7.95259 27.3686 7.80093 27.2004 7.68233 27.0128C7.58006 26.8351 7.4954 26.6479 7.42957 26.4538C7.19236 25.7422 7.14181 24.9956 7.07376 24.2684V23.828C6.98918 23.8961 6.97168 24.4716 6.97168 24.5571C6.92222 25.3257 6.82023 26.0899 6.66643 26.8446C6.61588 27.1498 6.58185 27.4541 6.39423 27.7253C6.39423 27.7594 6.39423 27.7934 6.41075 27.8439C6.71601 28.7422 6.79961 29.657 6.85114 30.5893V30.9295C6.85114 31.3359 6.83461 31.2503 7.17195 31.3864C7.30805 31.437 7.45971 31.4545 7.59581 31.5556C7.69788 31.5556 7.71441 31.471 7.71441 31.403L7.66386 30.844V29.2847C7.64733 29.0125 7.69788 28.7422 7.73191 28.4875L7.73288 28.4865Z" fill="#C2BFBF"/>
</svg>
